<?xml version="1.0" encoding="utf-8"?>
<!-- Generator: Adobe Illustrator 23.0.3, SVG Export Plug-In . SVG Version: 6.00 Build 0)  -->
<svg version="1.1" id="Layer_1" xmlns="http://www.w3.org/2000/svg" xmlns:xlink="http://www.w3.org/1999/xlink" x="0px" y="0px"
	 viewBox="0 0 100 100" style="enable-background:new 0 0 100 100;" xml:space="preserve">
<style type="text/css">
	.st0{fill:#38588E;}
	.st1{fill:#ED1C24;}
	.st2{fill:none;stroke:#F37032;stroke-width:2;}
	.st3{fill:#F37032;}
	.st4{fill:#C7CDE1;}
</style>
<polygon class="st0" points="8.47,62.41 8.47,84.05 17.69,77.45 16.99,51.21 "/>
<g>
	<path class="st1" d="M24.35,57.75v-1.96l2.51-2.43c6.03-5.74,8.76-8.79,8.79-12.35c0-2.4-1.16-4.61-4.69-4.61
		c-2.14,0-3.92,1.09-5.01,2l-1.02-2.25c1.63-1.38,3.96-2.4,6.69-2.4c5.09,0,7.23,3.49,7.23,6.87c0,4.36-3.16,7.88-8.14,12.68
		l-1.89,1.74v0.07h10.61v2.65H24.35z"/>
	<path class="st1" d="M57.6,34.13v2.11L47.32,57.75h-3.31l10.25-20.89v-0.07H42.7v-2.65H57.6z"/>
	<path class="st1" d="M70.82,40.78c0,4.98-2.62,7.45-5.67,7.45c-2.94,0-5.49-2.36-5.52-7.12c0-4.72,2.58-7.38,5.7-7.38
		C68.64,33.73,70.82,36.28,70.82,40.78z M62.17,41c-0.07,3.02,1.05,5.3,3.05,5.3c2.11,0,3.05-2.25,3.05-5.38
		c0-2.87-0.83-5.27-3.05-5.27C63.23,35.66,62.17,38.02,62.17,41z M64.94,58.15l13.88-24.41h2.04L66.97,58.15H64.94z M86.19,50.55
		c0,4.98-2.62,7.45-5.63,7.45c-2.94,0-5.49-2.36-5.52-7.08c0-4.76,2.58-7.41,5.7-7.41C84.05,43.51,86.19,46.05,86.19,50.55z
		 M77.54,50.77c-0.04,3.02,1.13,5.3,3.09,5.3c2.11,0,3.05-2.25,3.05-5.38c0-2.87-0.84-5.27-3.05-5.27
		C78.63,45.43,77.54,47.79,77.54,50.77z"/>
</g>
<line class="st2" x1="16.28" y1="16.85" x2="16.28" y2="94.33"/>
<polygon class="st3" points="16.28,5.67 1.73,21.32 30.83,21.32 "/>
<rect x="8.47" y="62.41" class="st4" width="89.8" height="24.47"/>
<g>
	<path class="st1" d="M36.76,81.93c-0.72,0.36-2.16,0.72-4.01,0.72c-4.28,0-7.5-2.7-7.5-7.68c0-4.75,3.22-7.97,7.93-7.97
		c1.89,0,3.09,0.41,3.6,0.68l-0.47,1.6c-0.74-0.36-1.8-0.63-3.06-0.63c-3.56,0-5.92,2.27-5.92,6.26c0,3.72,2.14,6.1,5.83,6.1
		c1.19,0,2.41-0.25,3.2-0.63L36.76,81.93z"/>
	<path class="st1" d="M41.47,77.65l-1.58,4.77h-2.03l5.16-15.18h2.36l5.18,15.18h-2.09l-1.62-4.77H41.47z M46.44,76.12l-1.49-4.37
		c-0.34-0.99-0.56-1.89-0.79-2.77h-0.04c-0.23,0.9-0.47,1.82-0.77,2.75l-1.49,4.39H46.44z"/>
	<path class="st1" d="M64.14,81.75c-0.88,0.32-2.61,0.83-4.66,0.83c-2.3,0-4.19-0.58-5.68-2c-1.31-1.26-2.12-3.29-2.12-5.65
		c0.02-4.53,3.13-7.84,8.22-7.84c1.76,0,3.13,0.38,3.78,0.7l-0.47,1.6c-0.81-0.36-1.82-0.65-3.36-0.65c-3.69,0-6.1,2.3-6.1,6.1
		c0,3.85,2.32,6.13,5.86,6.13c1.28,0,2.16-0.18,2.61-0.41v-4.53h-3.09v-1.58h5V81.75z"/>
	<path class="st1" d="M66.93,67.45c0.99-0.2,2.41-0.31,3.76-0.31c2.09,0,3.45,0.38,4.39,1.24c0.77,0.68,1.19,1.71,1.19,2.88
		c0,2-1.26,3.33-2.86,3.87v0.07c1.17,0.41,1.87,1.49,2.23,3.06c0.5,2.12,0.86,3.58,1.17,4.17h-2.03c-0.25-0.43-0.59-1.73-1.01-3.63
		c-0.45-2.09-1.26-2.88-3.04-2.95h-1.85v6.58h-1.96V67.45z M68.89,74.36h2c2.09,0,3.42-1.15,3.42-2.88c0-1.96-1.42-2.82-3.49-2.84
		c-0.95,0-1.62,0.09-1.94,0.18V74.36z"/>
</g>
</svg>
